<?xml version="1.0" encoding="UTF-8" standalone="no"?>
<!-- Generator: Adobe Illustrator 16.0.3, SVG Export Plug-In . SVG Version: 6.00 Build 0)  -->

<svg
   xmlns:dc="http://purl.org/dc/elements/1.1/"
   xmlns:cc="http://creativecommons.org/ns#"
   xmlns:rdf="http://www.w3.org/1999/02/22-rdf-syntax-ns#"
   xmlns:svg="http://www.w3.org/2000/svg"
   xmlns="http://www.w3.org/2000/svg"
   xmlns:sodipodi="http://sodipodi.sourceforge.net/DTD/sodipodi-0.dtd"
   xmlns:inkscape="http://www.inkscape.org/namespaces/inkscape"
   version="1.1"
   id="Layer_1"
   x="0px"
   y="0px"
   width="569.675px"
   height="200px"
   viewBox="0 0 569.675 200"
   enable-background="new 0 0 569.675 200"
   xml:space="preserve"
   inkscape:version="0.92.5 (2060ec1f9f, 2020-04-08)"
   sodipodi:docname="elorus-fuse-api.svg"><metadata
     id="metadata25"><rdf:RDF><cc:Work
         rdf:about=""><dc:format>image/svg+xml</dc:format><dc:type
           rdf:resource="http://purl.org/dc/dcmitype/StillImage" /><dc:title></dc:title></cc:Work></rdf:RDF></metadata><defs
     id="defs23" /><sodipodi:namedview
     pagecolor="#ffffff"
     bordercolor="#666666"
     borderopacity="1"
     objecttolerance="10"
     gridtolerance="10"
     guidetolerance="10"
     inkscape:pageopacity="0"
     inkscape:pageshadow="2"
     inkscape:window-width="1920"
     inkscape:window-height="1136"
     id="namedview21"
     showgrid="false"
     inkscape:zoom="0.5757669"
     inkscape:cx="444.62438"
     inkscape:cy="100"
     inkscape:window-x="0"
     inkscape:window-y="27"
     inkscape:window-maximized="1"
     inkscape:current-layer="Layer_1" /><path
     style="fill:#222427;fill-opacity:1;stroke-width:0.43957323"
     d="m 183.23428,128.84984 h 55.82579 v 16.28251 h -55.82579 z"
     id="rect11-3"
     inkscape:connector-curvature="0" /><path
     style="fill:#222427;fill-opacity:1;stroke-width:0.43957323"
     d="m 183.23428,102.79782 h 27.9129 v 16.2825 h -27.9129 z"
     id="rect13-6"
     inkscape:connector-curvature="0" /><path
     style="fill:#222427;fill-opacity:1;fill-rule:nonzero;stroke-width:0.43957323"
     d="m 183.23428,77.094832 c 18.60857,0 37.21722,0 55.82579,0 0,5.427479 0,10.85496 0,16.282435 -18.60857,0 -37.21722,0 -55.82579,0 0,-5.427475 0,-10.854956 0,-16.282435 z"
     id="rect15-7"
     inkscape:connector-curvature="0" /><path
     d="M 51.439726,144.53749 H 68.067812 V 109.09601 H 77.28445 V 97.313922 h -9.216638 v -4.560813 c 0,-2.755484 1.14019,-3.705661 3.515657,-3.705661 H 77.28445 V 75.555061 h -9.121648 c -9.88181,0 -16.723076,4.940874 -16.723076,16.627953 v 5.130908 h -5.320943 v 11.782088 h 5.320943 z"
     style="fill:#222427;fill-opacity:1;stroke-width:0.43957323"
     id="path13948"
     inkscape:connector-curvature="0" /><path
     d="m 83.175424,128.00448 c 0,11.30706 5.511,17.29315 16.247954,17.29315 2.850492,0 7.981462,-1.04519 12.067222,-5.13094 h 0.38004 v 4.3708 h 16.533 V 97.313922 h -16.81805 v 25.844648 c 0,4.18077 -3.4206,6.65124 -6.27116,6.65124 -3.89571,0 -5.320958,-2.47047 -5.320958,-6.46119 V 97.313922 H 83.175424 Z"
     style="fill:#222427;fill-opacity:1;stroke-width:0.43957323"
     id="path13950"
     inkscape:connector-curvature="0" /><path
     d="m 134.86479,137.88628 c 7.2213,5.98609 15.29775,7.22131 22.80417,7.22131 11.97215,0 21.18887,-5.32097 21.18887,-15.58284 0,-10.07184 -7.60142,-13.01738 -16.91313,-14.53766 -5.03591,-0.85516 -8.07645,-1.71032 -8.07645,-3.80069 0,-1.23524 1.04521,-2.47046 4.18074,-2.47046 3.23061,0 7.69642,0.57012 13.30241,4.08575 l 6.46122,-10.83194 c -5.98611,-4.275768 -13.2074,-5.701017 -20.52378,-5.701017 -10.26186,0 -19.19351,5.130907 -19.19351,15.677807 0,11.59211 10.26192,13.96755 19.57363,15.2978 3.13554,0.47508 4.65585,1.14019 4.65585,2.85051 0,1.71031 -2.1854,2.56547 -5.511,2.56547 -4.18083,0 -8.93167,-0.66512 -14.82272,-5.22596 z"
     style="fill:#222427;fill-opacity:1;stroke-width:0.43957323"
     id="path13952"
     inkscape:connector-curvature="0" /></svg>