<?xml version="1.0" encoding="UTF-8" standalone="no"?>
<svg
   xmlns:dc="http://purl.org/dc/elements/1.1/"
   xmlns:cc="http://creativecommons.org/ns#"
   xmlns:rdf="http://www.w3.org/1999/02/22-rdf-syntax-ns#"
   xmlns:svg="http://www.w3.org/2000/svg"
   xmlns="http://www.w3.org/2000/svg"
   width="2000"
   height="800"
   viewBox="0 0 529.16666 211.66667"
   version="1.1"
   id="svg4757">
  <defs
     id="defs4751" />
  <metadata
     id="metadata4754">
    <rdf:RDF>
      <cc:Work
         rdf:about="">
        <dc:format>image/svg+xml</dc:format>
        <dc:type
           rdf:resource="http://purl.org/dc/dcmitype/StillImage" />
        <dc:title />
      </cc:Work>
    </rdf:RDF>
  </metadata>
  <g id="layer1">
    <path
       style="fill:#222427;fill-opacity:1;"
       d="m 351.89583,148.83279 h 127 v 37.04166 h -127 z"
       id="rect11" />
    <path
       style="fill:#222427;fill-opacity:1;"
       d="m 351.89583,89.56619 h 63.5 v 37.0416 h -63.5 z"
       id="rect13" />
    <path
       style="fill:#222427;fill-opacity:1;fill-rule:nonzero;"
       d="m 351.89583,31.093593 c 42.33333,0 84.66668,0 127,0 0,12.347158 0,24.694309 0,37.04146 -42.33332,0 -84.66667,0 -127,0 0,-12.347151 0,-24.694302 0,-37.04146 z"
       id="rect15" />
    <path
       d="M 52.072013,184.52118 H 89.899701 V 103.89416 H 110.86705 V 77.090682 H 89.899701 V 66.715139 c 0,-6.268554 2.593899,-8.430122 7.997854,-8.430122 H 110.86705 V 27.590721 H 90.11586 c -22.480455,0 -38.043847,11.240167 -38.043847,37.827477 v 11.672484 h -12.10486 v 26.803478 h 12.10486 z"
       style="fill:#222427;fill-opacity:1;"
       id="path13948" />
    <path
       d="m 124.26852,146.90965 c 0,25.72283 12.53717,39.3408 36.96305,39.3408 6.48475,0 18.15729,-2.37774 27.4521,-11.67255 h 0.86463 v 9.94328 h 37.61153 V 77.090682 h -38.26 v 58.794898 c 0,9.51096 -7.7817,15.13108 -14.26645,15.13108 -8.86248,0 -12.10486,-5.62012 -12.10486,-14.69876 V 77.090682 h -38.26 z"
       style="fill:#222427;fill-opacity:1;"
       id="path13950" />
    <path
       d="m 241.8584,169.3901 c 16.42803,13.61797 34.80147,16.42803 51.87797,16.42803 27.23594,0 48.20329,-12.10486 48.20329,-35.44995 0,-22.91277 -17.29266,-29.61367 -38.47617,-33.07221 -11.45638,-1.94542 -18.37345,-3.89084 -18.37345,-8.64632 0,-2.81006 2.37775,-5.62012 9.51097,-5.62012 7.34938,0 17.50881,1.29695 30.26215,9.29481 l 14.69876,-24.641968 c -13.61797,-9.727066 -30.046,-12.969418 -46.69018,-12.969418 -23.34509,0 -43.66396,11.672474 -43.66396,35.665956 0,26.3713 23.34509,31.77526 44.52859,34.80147 7.13322,1.0808 10.59176,2.5939 10.59176,6.48475 0,3.89085 -4.97164,5.83627 -12.53718,5.83627 -9.51096,0 -20.31887,-1.5131 -33.72068,-11.8887 z"
       style="fill:#222427;fill-opacity:1;"
       id="path13952" />
  </g>
</svg>
