<?xml version="1.0" encoding="UTF-8" standalone="no"?>
<!-- Created with Inkscape (http://www.inkscape.org/) -->

<svg
   xmlns:dc="http://purl.org/dc/elements/1.1/"
   xmlns:cc="http://creativecommons.org/ns#"
   xmlns:rdf="http://www.w3.org/1999/02/22-rdf-syntax-ns#"
   xmlns:svg="http://www.w3.org/2000/svg"
   xmlns="http://www.w3.org/2000/svg"
   xmlns:sodipodi="http://sodipodi.sourceforge.net/DTD/sodipodi-0.dtd"
   xmlns:inkscape="http://www.inkscape.org/namespaces/inkscape"
   width="1084"
   height="600.51971"
   viewBox="0 0 286.80834 158.88751"
   version="1.1"
   id="svg53"
   inkscape:version="0.92.5 (2060ec1f9f, 2020-04-08)"
   sodipodi:docname="bg-404.svg">
  <defs
     id="defs47" />
  <sodipodi:namedview
     id="base"
     pagecolor="#ffffff"
     bordercolor="#666666"
     borderopacity="1.0"
     inkscape:pageopacity="0.0"
     inkscape:pageshadow="2"
     inkscape:zoom="0.98994949"
     inkscape:cx="499.59213"
     inkscape:cy="251.02968"
     inkscape:document-units="mm"
     inkscape:current-layer="layer1"
     showgrid="false"
     inkscape:window-width="1848"
     inkscape:window-height="1136"
     inkscape:window-x="72"
     inkscape:window-y="27"
     inkscape:window-maximized="1"
     units="px"
     inkscape:snap-page="true"
     inkscape:snap-global="true"
     inkscape:snap-text-baseline="true" />
  <metadata
     id="metadata50">
    <rdf:RDF>
      <cc:Work
         rdf:about="">
        <dc:format>image/svg+xml</dc:format>
        <dc:type
           rdf:resource="http://purl.org/dc/dcmitype/StillImage" />
        <dc:title></dc:title>
      </cc:Work>
    </rdf:RDF>
  </metadata>
  <g
     inkscape:label="Layer 1"
     inkscape:groupmode="layer"
     id="layer1"
     transform="translate(0,-138.11247)">
    <g
       id="Group_6"
       data-name="Group 6"
       transform="matrix(0.35814063,0.16816529,-0.16816529,0.35814063,162.99233,32.142833)">
      <path
         style="fill:#222221"
         inkscape:connector-curvature="0"
         id="Path_13"
         data-name="Path 13"
         d="m 468.38,456.551 a 11.55,11.55 0 0 0 -8.639,-7.136 c -5.455,-1.041 -7.87,2.065 -12.042,4.745 -6.188,3.973 -9.454,-5.436 -15.473,-5.471 -2.753,-0.016 -5.21,1.676 -7.36,3.172 a 30.141,30.141 0 0 1 -3.924,2.625 c -4.836,2.345 -6.463,0.164 -9.313,-3.219 a 10.155,10.155 0 0 0 -10.233,-3.708 c -5.229,1.157 -8.907,10.908 -14.2,8.216 -3.7,-1.88 -5.236,-6.712 -9.64,-7.574 -4.723,-0.925 -8.186,3.36 -10.512,6.81 -0.411,0.611 0.559,1.379 1.033,0.8 2.349,-2.889 5.271,-6.6 9.421,-5.583 2.639,0.645 4.1,2.84 5.881,4.7 1.821,1.906 3.942,3.786 6.777,3.4 3.985,-0.543 5.417,-4.913 8.182,-7.169 4.072,-3.323 8.914,-2.175 12.161,1.649 1.288,1.517 2.045,3.161 3.968,4.042 3.526,1.616 7.2,-0.484 10.081,-2.466 3.725,-2.564 7.219,-5.285 11.651,-2.2 1.662,1.157 2.919,2.855 4.669,3.9 3.2,1.914 6.049,0.937 8.87,-1.178 2.312,-1.733 4.282,-3.737 7.373,-3.853 a 9.828,9.828 0 0 1 9.489,5.987 c 0.448,1.085 2.238,0.61 1.78,-0.489 z" />
      <path
         style="fill:#222221"
         inkscape:connector-curvature="0"
         id="Path_14"
         data-name="Path 14"
         d="m 468.38,443.283 a 11.552,11.552 0 0 0 -8.639,-7.136 c -5.455,-1.041 -7.87,2.065 -12.042,4.745 -6.188,3.973 -9.454,-5.436 -15.473,-5.47 -2.753,-0.016 -5.21,1.676 -7.36,3.171 a 30.148,30.148 0 0 1 -3.924,2.626 c -4.836,2.344 -6.463,0.163 -9.313,-3.219 a 10.155,10.155 0 0 0 -10.233,-3.709 c -5.229,1.157 -8.907,10.909 -14.2,8.216 -3.7,-1.879 -5.236,-6.711 -9.64,-7.574 -4.723,-0.925 -8.186,3.36 -10.512,6.811 -0.411,0.61 0.559,1.379 1.033,0.8 2.349,-2.889 5.271,-6.6 9.421,-5.583 2.639,0.645 4.1,2.84 5.881,4.706 1.821,1.9 3.942,3.785 6.777,3.4 3.985,-0.544 5.417,-4.913 8.182,-7.17 4.072,-3.323 8.914,-2.175 12.161,1.65 1.288,1.516 2.045,3.16 3.968,4.042 3.526,1.615 7.2,-0.485 10.081,-2.467 3.725,-2.563 7.219,-5.285 11.651,-2.2 1.662,1.157 2.919,2.855 4.669,3.9 3.2,1.914 6.049,0.937 8.87,-1.178 2.312,-1.732 4.282,-3.737 7.373,-3.853 a 9.828,9.828 0 0 1 9.489,5.987 c 0.448,1.079 2.238,0.604 1.78,-0.495 z" />
      <path
         style="fill:#222221"
         inkscape:connector-curvature="0"
         id="Path_15"
         data-name="Path 15"
         d="m 468.38,431 a 11.553,11.553 0 0 0 -8.639,-7.137 c -5.455,-1.041 -7.87,2.066 -12.042,4.745 -6.188,3.973 -9.454,-5.436 -15.473,-5.47 -2.753,-0.016 -5.21,1.676 -7.36,3.171 a 30.151,30.151 0 0 1 -3.924,2.626 c -4.836,2.344 -6.463,0.164 -9.313,-3.219 A 10.157,10.157 0 0 0 401.4,422 c -5.229,1.157 -8.907,10.909 -14.2,8.216 -3.7,-1.879 -5.236,-6.711 -9.64,-7.573 -4.723,-0.925 -8.186,3.359 -10.512,6.81 -0.411,0.611 0.559,1.379 1.033,0.8 2.349,-2.89 5.271,-6.6 9.421,-5.584 2.639,0.645 4.1,2.84 5.881,4.706 1.821,1.9 3.942,3.786 6.777,3.4 3.985,-0.544 5.417,-4.913 8.182,-7.169 4.072,-3.324 8.914,-2.175 12.161,1.649 1.288,1.517 2.045,3.16 3.968,4.042 3.526,1.616 7.2,-0.485 10.081,-2.467 3.725,-2.563 7.219,-5.284 11.651,-2.2 1.662,1.157 2.919,2.856 4.669,3.9 3.2,1.915 6.049,0.938 8.87,-1.177 2.312,-1.733 4.282,-3.738 7.373,-3.854 a 9.828,9.828 0 0 1 9.489,5.987 c 0.444,1.084 2.234,0.614 1.776,-0.486 z" />
      <path
         style="fill:#222221"
         inkscape:connector-curvature="0"
         id="Path_16"
         data-name="Path 16"
         d="m 468.38,417.729 a 11.553,11.553 0 0 0 -8.639,-7.137 c -5.455,-1.041 -7.87,2.066 -12.042,4.745 -6.188,3.974 -9.454,-5.436 -15.473,-5.47 -2.753,-0.016 -5.21,1.676 -7.36,3.172 a 30.144,30.144 0 0 1 -3.924,2.625 c -4.836,2.345 -6.463,0.164 -9.313,-3.219 a 10.157,10.157 0 0 0 -10.233,-3.709 c -5.229,1.158 -8.907,10.909 -14.2,8.217 -3.7,-1.88 -5.236,-6.712 -9.64,-7.574 -4.723,-0.925 -8.186,3.359 -10.512,6.81 -0.411,0.611 0.559,1.379 1.033,0.8 2.349,-2.889 5.271,-6.6 9.421,-5.583 2.639,0.644 4.1,2.839 5.881,4.7 1.821,1.906 3.942,3.786 6.777,3.4 3.985,-0.543 5.417,-4.913 8.182,-7.169 4.072,-3.324 8.914,-2.175 12.161,1.649 1.288,1.517 2.045,3.161 3.968,4.042 3.526,1.616 7.2,-0.485 10.081,-2.466 3.725,-2.564 7.219,-5.285 11.651,-2.2 1.662,1.158 2.919,2.856 4.669,3.9 3.2,1.914 6.049,0.937 8.87,-1.178 2.312,-1.733 4.282,-3.737 7.373,-3.853 a 9.828,9.828 0 0 1 9.489,5.986 c 0.448,1.083 2.238,0.611 1.78,-0.488 z" />
    </g>
    <g
       style="opacity:0.5"
       id="blob-shape_1_"
       data-name="blob-shape(1)"
       transform="matrix(-0.15663899,0.31923672,-0.31923672,-0.15663899,206.96767,211.6085)">
      <path
         style="fill:#1c9f98"
         inkscape:connector-curvature="0"
         id="Path_145-2"
         data-name="Path 145"
         d="M 116.071,-93.149 A 180.463,180.463 0 0 1 166.641,42.8 C 163.6,97.434 136.358,158.642 91.766,176.28 47.175,193.822 -14.763,167.795 -60.629,136.047 c -45.963,-31.748 -75.952,-69.216 -88.3,-113.072 -12.348,-43.856 -7.252,-94.2 19.993,-126.325 27.245,-32.125 76.536,-45.95 122.895,-43.761 46.355,2.288 89.771,20.784 122.112,53.962 z"
         transform="translate(123.29,198.335)" />
    </g>
    <g
       id="blob-shape-2"
       data-name="blob-shape"
       transform="matrix(-0.42414881,-0.2136202,0.26073328,-0.35882702,190.65779,292.72607)"
       inkscape:export-xdpi="96"
       inkscape:export-ydpi="96"
       style="opacity:0.75">
      <path
         style="fill:#aa3c64"
         inkscape:connector-curvature="0"
         id="Path_146-2"
         data-name="Path 146"
         d="m 265.114,58.485 c 34.825,33.8 74.072,77.486 70.039,115.765 -4.111,38.278 -51.424,71.233 -93.385,78.669 -41.883,7.52 -78.338,-10.562 -125.883,-26.617 C 68.34,210.247 9.78,196.135 1.17,166.307 -7.517,136.563 33.824,91.017 70.2,56.71 106.655,22.488 138.145,-0.58 169.092,0.011 200.039,0.518 230.366,24.6 265.114,58.485 Z"
         transform="rotate(25,151.50239,54.184611)" />
    </g>
    <path
       inkscape:connector-curvature="0"
       style="fill:#1e4682;stroke-width:0.48916158"
       id="Path_150"
       data-name="Path 150"
       d="m 121.66313,165.13642 c 22.01992,-2.8091 49.55123,-4.57541 67.47738,6.29978 17.91465,10.90036 26.27585,34.4449 23.11744,49.8747 -3.10544,15.4254 -17.76039,22.69226 -33.21966,34.05309 -15.45929,11.36086 -31.75354,26.77098 -47.61777,22.09531 -15.83588,-4.6294 -31.27147,-29.38932 -42.054322,-49.73285 -10.728332,-20.34769 -16.845093,-36.3007 -11.566384,-46.16103 5.236749,-9.8814 21.815049,-13.66617 43.863316,-16.429 z" />
    <text
       xml:space="preserve"
       style="font-style:normal;font-variant:normal;font-weight:bold;font-stretch:normal;font-size:53.52344513px;line-height:1.25;font-family:'Ubuntu Mono';-inkscape-font-specification:'Ubuntu Mono, Bold';font-variant-ligatures:normal;font-variant-caps:normal;font-variant-numeric:normal;font-feature-settings:normal;text-align:start;letter-spacing:0px;word-spacing:0px;writing-mode:lr-tb;text-anchor:start;fill:#000000;fill-opacity:1;stroke:none;stroke-width:1.6026814"
       x="105.97495"
       y="227.82158"
       id="text1054"><tspan
         sodipodi:role="line"
         id="tspan1052"
         x="105.97495"
         y="227.82158"
         style="font-style:normal;font-variant:normal;font-weight:bold;font-stretch:normal;font-size:53.52344513px;font-family:'Ubuntu Mono';-inkscape-font-specification:'Ubuntu Mono, Bold';font-variant-ligatures:normal;font-variant-caps:normal;font-variant-numeric:normal;font-feature-settings:normal;text-align:start;writing-mode:lr-tb;text-anchor:start;fill:#ffffff;fill-opacity:1;stroke-width:1.6026814">404</tspan></text>
    <g
       id="Group_129"
       data-name="Group 129"
       transform="matrix(0.30799117,0,0,0.30799117,-302.19244,136.39048)">
      <g
         id="Group_106"
         data-name="Group 106">
        <path
           inkscape:connector-curvature="0"
           id="Path_156"
           data-name="Path 156"
           d="m 1046.448,393.77 c -1.136,-3.222 1.461,-7.491 2.521,-10.514 1.4,-4 3.031,-7.893 4.8,-11.742 a 171.51,171.51 0 0 1 12.339,-22.979 c 9.241,-14.031 20.789,-25.667 32.728,-37.341 5.379,-5.259 10.811,-10.6 16.564,-15.454 0.88,-0.742 3.363,-3.016 3.955,-3 1.708,0.034 1.189,0.154 1.53,1.617 a 25.241,25.241 0 0 1 0.073,4.252 c 0.159,4.233 0.461,8.456 0.568,12.692 0.437,17.424 -1.524,34.811 -4.258,52 -1.411,8.876 -3.218,17.3 -5.425,26.016 -2.268,8.955 -3.335,18.181 -5.509,27.186 -0.252,1.041 2.611,0.615 2.845,-0.357 2.175,-9.007 3.241,-18.229 5.51,-27.186 2.285,-9.023 4.108,-17.771 5.577,-26.962 3.013,-18.851 4.794,-37.864 3.909,-56.959 -0.1,-2.1 -0.253,-4.2 -0.335,-6.3 -0.078,-1.974 0.4,-4.566 -0.111,-6.506 -0.4,-1.517 -0.813,-2.079 -2.5,-2.011 -2.178,0.087 -4.415,2.161 -6.034,3.389 -3.692,2.8 -6.988,6.144 -10.39,9.282 -13.257,12.228 -26.124,24.651 -36.875,39.2 a 160.378,160.378 0 0 0 -15.713,27 c -2.122,4.484 -4.131,9.024 -5.8,13.7 -1.224,3.427 -4.085,8.12 -2.808,11.741 0.349,0.992 3.176,0.175 2.846,-0.762 z" />
      </g>
      <g
         id="Group_107"
         data-name="Group 107">
        <path
           inkscape:connector-curvature="0"
           id="Path_157"
           data-name="Path 157"
           d="m 1043.226,395.493 c 7.649,1.675 14.2,5.377 21.383,8.469 7.183,3.092 14.405,6.188 21.573,9.354 5.357,2.365 11.789,7.607 17.832,7.752 3.132,0.075 3.63,-1.572 4.235,-4.36 0.23,-1.06 -2.634,-0.616 -2.846,0.357 -0.707,3.259 -1.925,2.266 -4.976,0.875 -2.523,-1.152 -4.882,-2.689 -7.386,-3.9 -5.536,-2.672 -11.262,-4.964 -16.9,-7.413 -10.227,-4.444 -20.307,-10.3 -31.173,-12.682 -0.908,-0.2 -3.347,1.194 -1.742,1.546 z" />
      </g>
      <g
         id="Group_108"
         data-name="Group 108">
        <path
           inkscape:connector-curvature="0"
           id="Path_158"
           data-name="Path 158"
           d="m 1076.393,330.193 -0.26,0.594 2.295,-0.952 c -6.775,-0.746 -13.581,-1.976 -20.363,-0.222 a 35.147,35.147 0 0 0 -16.239,9.633 c -5.38,5.507 -9.644,12.366 -13.606,18.93 -3.814,6.319 -9.066,13.824 -9.5,21.4 a 0.466,0.466 0 0 0 0.291,0.51 c 3.8,1.7 7.958,0.827 11.993,0.756 2.152,-0.038 4.3,-0.057 6.448,-0.214 3.341,-0.245 6.724,-1.536 10.041,-1.562 1.067,-0.008 3.02,-1.628 1.107,-1.613 -4.307,0.033 -8.351,1.532 -12.674,1.707 -3.226,0.132 -6.863,0.6 -10.082,0.366 -3.726,-0.273 -4.488,-1.607 -3.512,-4.839 a 38.775,38.775 0 0 1 3.269,-7.021 c 1.98,-3.682 3.97,-7.351 6.173,-10.9 4.362,-7.04 9.033,-14.7 15.528,-19.978 8.943,-7.26 18.652,-6.585 29.384,-5.4 a 2.2,2.2 0 0 0 2.294,-0.951 l 0.259,-0.594 c 0.383,-0.876 -2.44,-0.572 -2.845,0.357 z" />
      </g>
      <g
         id="Group_109"
         data-name="Group 109">
        <path
           inkscape:connector-curvature="0"
           id="Path_159"
           data-name="Path 159"
           d="m 1121.057,346.007 c 7.951,6.728 15.772,14.9 19.948,24.554 4.226,9.771 2.926,20.453 1.73,30.748 a 94.569,94.569 0 0 1 -2.9,14.3 c -0.268,0.978 -0.5,4.762 -1.223,5.625 -2.043,2.449 -4.985,-1.2 -6.433,-2.374 -7.716,-6.252 -14.947,-12.965 -20.293,-21.41 -0.5,-0.793 -3.27,0.123 -2.643,1.114 a 72.71,72.71 0 0 0 11.793,14.078 c 3.989,3.751 8.417,8.233 13.039,11.177 7.638,4.866 8.624,-8.436 9.788,-12.739 a 92.9,92.9 0 0 0 2.74,-18.5 c 0.34,-5.789 0.716,-12.575 -0.953,-18.161 -3.543,-11.86 -12.715,-21.707 -21.95,-29.521 -0.765,-0.646 -3.417,0.459 -2.643,1.114 z" />
      </g>
      <g
         id="Group_110"
         data-name="Group 110">
        <path
           inkscape:connector-curvature="0"
           id="Path_160"
           data-name="Path 160"
           d="m 1106.61,333.673 c -4.236,-4.7 -12.951,-2.657 -17.475,0.65 -6.934,5.067 -4.514,14.5 1.891,18.792 5.88,3.94 13.712,5.04 17.079,-2.616 a 17.586,17.586 0 0 0 0.98,-11.386 c -0.59,-2.273 -1.412,-6.329 -3.8,-7.427 -0.839,-0.385 -3.441,0.837 -2.265,1.377 2.631,1.208 3.907,8.6 3.785,11.07 a 19.046,19.046 0 0 1 -1.448,6.377 6.489,6.489 0 0 1 -1.018,1.935 l -6.3,1.8 a 11.03,11.03 0 0 1 -3.087,-1.544 c -4.247,-2.347 -7.951,-6.79 -7.16,-11.963 0.986,-6.456 11.3,-11.359 16.176,-5.952 0.659,0.731 3.377,-0.3 2.643,-1.114 z" />
      </g>
      <g
         id="Group_111"
         data-name="Group 111">
        <path
           inkscape:connector-curvature="0"
           id="Path_161"
           data-name="Path 161"
           d="m 1094.746,370.54 c -2.059,-4.643 -11.58,-4.833 -15.59,-3.149 a 15.367,15.367 0 0 0 -7.934,7.73 c -1.793,4.509 1.771,8.731 4.889,11.763 4.971,4.834 13.672,8.343 18.82,1.869 2.773,-3.487 3.137,-7.518 1.937,-11.569 -0.875,-2.951 -1.289,-6.881 -4.478,-8.237 -0.846,-0.361 -3.441,0.876 -2.265,1.376 2.887,1.228 5.034,8.941 4.775,11.829 a 13.39,13.39 0 0 1 -0.8,2.91 c -1.081,3.124 -1.275,3.11 -4.893,4.163 -3.483,1.015 -3.665,1.067 -6.332,-0.488 a 21.319,21.319 0 0 1 -4.126,-2.966 25.85,25.85 0 0 1 -4.117,-5.351 c -2.194,-3.651 -0.36,-7.179 2.631,-9.824 2.79,-2.468 12.465,-4.178 14.632,0.707 0.436,0.983 3.231,0.106 2.846,-0.763 z" />
      </g>
      <g
         id="Group_112"
         data-name="Group 112">
        <path
           inkscape:connector-curvature="0"
           id="Path_162"
           data-name="Path 162"
           d="m 1057.946,400.7 a 90.5,90.5 0 0 1 -8.38,11.255 c -1.4,1.618 -6.364,6.73 -5.66,9.252 0.6,2.146 5.189,2.469 6.89,3 5.777,1.8 11.48,3.823 17.238,5.69 4.495,1.458 8.82,3.292 13.267,4.81 1.476,0.5 3.216,1.29 4.617,0.225 2.174,-1.653 1.886,-6.914 2.158,-9.213 0.524,-4.431 1.481,-8.831 0.955,-13.3 -0.114,-0.972 -2.721,-0.242 -2.846,0.56 l -0.04,0.259 c -0.172,1.1 2.694,0.615 2.846,-0.357 l 0.04,-0.259 -2.846,0.559 c 0.478,4.071 -0.346,8.012 -0.858,12.03 -0.221,1.738 -0.315,3.49 -0.594,5.22 0,0 -1.376,4.445 0.238,3.192 -0.814,0.632 -8.138,-2.971 -9.551,-3.436 -3.977,-1.31 -7.976,-2.554 -11.938,-3.909 -3.482,-1.192 -6.967,-2.348 -10.464,-3.495 -1.142,-0.375 -3.421,-0.754 -4.445,-1.463 q -1.417,0.223 -1.1,-1.234 a 1.7,1.7 0 0 1 0.469,-2.088 c 1.223,-3.191 4.209,-5.781 6.342,-8.339 a 80.275,80.275 0 0 0 6.311,-8.895 c 0.7,-1.114 -2.151,-0.855 -2.649,-0.06 z" />
      </g>
      <g
         id="Group_113"
         data-name="Group 113">
        <path
           inkscape:connector-curvature="0"
           id="Path_163"
           data-name="Path 163"
           d="m 1058.193,432.351 c -7.908,-3.193 -17.492,7.792 -20.31,13.991 -0.278,0.612 1,0.631 1.229,0.609 a 10.945,10.945 0 0 0 2.919,-0.761 c -0.41,0.133 5.119,-1.669 5.493,-1.355 1.551,1.3 -2.129,10.26 -2.433,12.1 -0.594,3.593 -0.019,6.827 0.516,10.386 0.286,1.9 0.331,7.662 1.921,9.075 2.735,2.428 6.327,-3.4 7.441,-4.646 2.6,-2.919 5.45,-5.949 7.8,-9.055 2.117,-2.795 3.154,-5.949 4.609,-9.082 l -2.555,0.867 c 3.763,1.367 2.362,7.063 5.366,8.6 a 2.34,2.34 0 0 0 2.274,-0.455 c 2.224,-2.193 2.436,-6.687 2.14,-9.6 -0.593,-5.827 -3.276,-12.206 -7.774,-16.054 -2.068,-1.769 -6.232,-5.4 -9.137,-4.668 -3.292,0.834 -4.934,6.457 -5.206,9.257 -0.06,0.619 0.8,0.681 1.229,0.609 a 19.986,19.986 0 0 0 6.722,-2.786 l -2.306,-0.243 c -0.061,5.3 -5.727,9.491 -6.291,14.979 -0.028,0.27 0.079,0.367 0.29,0.51 6.425,4.373 17.983,-15.2 11.312,-19.435 -0.781,-0.5 -3.408,0.651 -2.265,1.377 5.078,3.223 -4.465,17.7 -6.405,16.347 -1,-0.7 6.178,-11.8 6.2,-14.135 0.012,-1.063 -1.8,-0.534 -2.306,-0.244 a 28.177,28.177 0 0 1 -4.568,2.055 l 1.229,0.609 c 0.239,-2.469 1.322,-6.543 3.619,-7.83 l -2.015,0.267 c 5.745,2.576 10.495,6.518 12.774,12.486 1.487,3.9 4.139,12.417 0.471,16.033 l 2.273,-0.455 c -1.094,-0.56 -1.8,-4.1 -2.335,-5.179 -0.775,-1.558 -1.3,-2.794 -3.031,-3.423 a 2.171,2.171 0 0 0 -2.555,0.867 46.878,46.878 0 0 1 -7.1,11.564 c -2.7,3.176 -5.332,7.906 -8.8,10.169 l 2.015,-0.266 c -1.4,-0.6 -1.676,-5.255 -1.9,-6.511 -0.609,-3.4 -1.382,-7.316 -1.069,-10.762 0.417,-4.586 3.859,-9.976 3,-14.49 -0.046,-0.245 -0.362,-0.333 -0.552,-0.392 -3.551,-1.094 -7.183,1.779 -10.629,2.1 l 1.228,0.609 c 1.87,-4.114 9.822,-14.429 15.2,-12.258 0.851,0.344 3.44,-0.9 2.265,-1.376 z" />
      </g>
      <g
         id="Group_114"
         data-name="Group 114">
        <path
           inkscape:connector-curvature="0"
           id="Path_164"
           data-name="Path 164"
           d="m 1090.522,333.089 c -1.828,1.708 -1.369,5.172 -1.375,7.449 -0.01,2.726 -0.731,7.2 0.853,9.6 0.348,0.526 2.191,-0.1 1.762,-0.742 -1.255,-1.9 -0.672,-5.514 -0.7,-7.645 -0.027,-1.952 -0.706,-6.77 0.983,-8.348 0.8,-0.748 -1.063,-0.739 -1.521,-0.311 z" />
      </g>
      <g
         id="Group_115"
         data-name="Group 115">
        <path
           inkscape:connector-curvature="0"
           id="Path_165"
           data-name="Path 165"
           d="m 1096.152,333.274 0.066,-0.275 c 0.167,-0.7 -1.738,-0.407 -1.9,0.238 -1.6,6.476 -2.761,13.737 -1.59,20.41 0.111,0.634 1.449,0.135 1.709,-0.1 a 1.535,1.535 0 0 0 0.682,-1.135 c 0.166,-0.7 -1.743,-0.411 -1.9,0.238 l -0.306,0.586 1.709,-0.1 c -1.158,-6.6 0.01,-13.725 1.59,-20.139 l -1.9,0.238 -0.066,0.275 c -0.167,0.7 1.741,0.411 1.9,-0.238 z" />
      </g>
      <g
         id="Group_116"
         data-name="Group 116">
        <path
           inkscape:connector-curvature="0"
           id="Path_166"
           data-name="Path 166"
           d="m 1098.908,332.255 c -2.342,6.4 -4.123,14.582 -3.1,21.41 0.1,0.652 1.815,0.161 1.9,-0.373 l 0.039,-0.251 c 0.112,-0.736 -1.8,-0.41 -1.9,0.238 l -0.038,0.251 1.9,-0.373 c -1.008,-6.75 0.793,-14.827 3.1,-21.14 0.229,-0.626 -1.665,-0.4 -1.9,0.238 z" />
      </g>
      <g
         id="Group_117"
         data-name="Group 117">
        <path
           inkscape:connector-curvature="0"
           id="Path_167"
           data-name="Path 167"
           d="m 1102.454,332.314 c -0.947,4.722 -1.776,9.465 -2.256,14.259 -0.24,2.4 -1.446,6.217 -0.793,8.486 0.189,0.66 2.085,0.147 1.9,-0.508 -0.378,-1.317 0.355,-3.408 0.488,-4.759 0.164,-1.654 0.276,-3.312 0.461,-4.965 0.481,-4.282 1.253,-8.528 2.1,-12.751 0.143,-0.714 -1.767,-0.411 -1.9,0.238 z" />
      </g>
      <g
         id="Group_118"
         data-name="Group 118">
        <path
           inkscape:connector-curvature="0"
           id="Path_168"
           data-name="Path 168"
           d="m 1104.535,335.187 a 80.436,80.436 0 0 0 -1.592,9.587 c -0.352,3.319 -0.095,6.62 -0.714,9.923 -0.137,0.732 1.747,0.389 1.9,-0.238 l 0.064,-0.267 c 0.167,-0.695 -1.742,-0.41 -1.9,0.238 l -0.064,0.267 1.9,-0.238 c 0.623,-3.327 0.348,-6.588 0.715,-9.923 a 82.824,82.824 0 0 1 1.591,-9.587 c 0.161,-0.7 -1.748,-0.411 -1.9,0.238 z" />
      </g>
      <g
         id="Group_119"
         data-name="Group 119">
        <path
           inkscape:connector-curvature="0"
           id="Path_169"
           data-name="Path 169"
           d="m 1075.986,371.164 c 0.023,-0.091 0.045,-0.183 0.068,-0.274 l -1.9,0.238 c -0.832,3.6 0.084,7.223 -0.167,10.864 a 0.311,0.311 0 0 0 0.194,0.34 l 0.3,0.139 c 0.558,0.261 2.293,-0.551 1.51,-0.918 -0.226,-0.106 -0.166,-4.224 -0.191,-4.6 a 20.485,20.485 0 0 1 0.256,-6.064 c 0.162,-0.7 -1.74,-0.4 -1.9,0.238 -0.022,0.092 -0.044,0.183 -0.067,0.274 -0.169,0.693 1.739,0.41 1.9,-0.238 z" />
      </g>
      <g
         id="Group_120"
         data-name="Group 120">
        <path
           inkscape:connector-curvature="0"
           id="Path_170"
           data-name="Path 170"
           d="m 1078.736,369.032 c -1.7,1.781 -1.552,4.268 -1.806,6.576 -0.41,3.717 -1.3,7.267 -0.5,10.992 0.141,0.654 1.812,0.164 1.9,-0.373 l 0.04,-0.25 c 0.116,-0.733 -1.8,-0.409 -1.9,0.239 l -0.039,0.249 1.9,-0.373 c -0.7,-3.257 -0.074,-6.338 0.351,-9.576 0.286,-2.18 -0.056,-5.461 1.578,-7.173 0.764,-0.8 -1.084,-0.769 -1.521,-0.311 z" />
      </g>
      <g
         id="Group_121"
         data-name="Group 121">
        <path
           inkscape:connector-curvature="0"
           id="Path_171"
           data-name="Path 171"
           d="m 1080.688,368.768 c 0.038,3.509 -0.143,7.016 0.1,10.52 0.233,3.314 -0.411,6.828 0.411,10.061 0.167,0.657 1.609,0.138 1.832,-0.234 l 0.147,-0.246 c 0.453,-0.757 -1.446,-0.577 -1.767,-0.04 l -0.147,0.246 1.832,-0.234 c -0.785,-3.09 -0.183,-6.828 -0.41,-10.062 -0.246,-3.5 -0.066,-7.012 -0.1,-10.519 -0.01,-0.589 -1.9,-0.228 -1.9,0.508 z" />
      </g>
      <g
         id="Group_122"
         data-name="Group 122">
        <path
           inkscape:connector-curvature="0"
           id="Path_172"
           data-name="Path 172"
           d="m 1084.982,368.872 a 69.338,69.338 0 0 0 -0.116,22.142 c 0.107,0.67 1.789,0.141 1.9,-0.373 0.045,-0.213 0.089,-0.426 0.134,-0.64 0.149,-0.71 -1.761,-0.411 -1.9,0.238 -0.045,0.214 -0.089,0.427 -0.134,0.64 l 1.9,-0.373 a 67.791,67.791 0 0 1 0.116,-21.872 c 0.133,-0.722 -1.777,-0.411 -1.9,0.238 z" />
      </g>
      <g
         id="Group_123"
         data-name="Group 123">
        <path
           inkscape:connector-curvature="0"
           id="Path_173"
           data-name="Path 173"
           d="m 1089.172,367.9 c -0.133,7.413 -1.3,14.6 -0.822,22.025 a 0.333,0.333 0 0 0 0.193,0.2 l 0.287,0.137 c 0.556,0.264 2.293,-0.545 1.51,-0.918 -1.387,-0.66 -0.19,-9.466 -0.1,-10.589 0.307,-3.707 0.759,-7.373 0.826,-11.1 0.014,-0.781 -1.886,-0.389 -1.9,0.238 z" />
      </g>
      <g
         id="Group_124"
         data-name="Group 124">
        <path
           inkscape:connector-curvature="0"
           id="Path_174"
           data-name="Path 174"
           d="m 1092.748,371.13 c -0.314,5.409 0.087,11.085 -0.775,16.43 -0.119,0.733 1.792,0.41 1.9,-0.238 0.862,-5.345 0.461,-11.024 0.776,-16.43 0.044,-0.77 -1.861,-0.4 -1.9,0.238 z" />
      </g>
      <g
         id="Group_125"
         data-name="Group 125">
        <path
           inkscape:connector-curvature="0"
           id="Path_175"
           data-name="Path 175"
           d="m 1102.354,305.229 a 33.062,33.062 0 0 0 10.158,7.861 c 2.954,1.349 6.4,1.58 9.161,3.184 a 1.582,1.582 0 0 0 1.516,-0.3 l 0.41,-0.322 c 0.845,-0.662 -1.04,-0.689 -1.522,-0.311 l -0.41,0.321 1.516,-0.3 c -2.615,-1.52 -5.771,-1.715 -8.582,-2.93 -4.149,-1.793 -7.4,-4.677 -10.485,-7.94 -0.453,-0.479 -2.258,0.217 -1.762,0.743 z" />
      </g>
      <g
         id="Group_126"
         data-name="Group 126">
        <path
           inkscape:connector-curvature="0"
           id="Path_176"
           data-name="Path 176"
           d="m 1111.4,300.187 c -1.685,0.623 -2.447,1.636 -3.512,3.091 l 1.766,0.04 a 33.91,33.91 0 0 1 2.846,-4.249 c 0.554,-0.7 -1.331,-0.467 -1.644,-0.176 a 64.283,64.283 0 0 0 -4.892,4.733 l 1.767,0.039 a 9.271,9.271 0 0 1 2.967,-2.71 l -1.537,-0.163 a 3.8,3.8 0 0 1 -0.887,2.6 c -0.5,0.867 1.369,0.384 1.644,0.176 1.366,-1.036 2.207,-2.638 3.538,-3.627 l -1.709,-0.037 a 27.262,27.262 0 0 1 -2.7,5.206 c -0.488,0.831 1.433,0.427 1.766,0.04 1.956,-2.268 3.25,-5.029 5.177,-7.237 l -1.832,0.1 c -0.018,2.135 -1.176,3.592 -2.033,5.458 -0.827,1.8 -1.21,3.77 -2.472,5.342 l 1.767,0.04 c 1.295,-2.412 2.65,-4.781 3.949,-7.214 0.96,-1.8 1.911,-4.774 3.216,-6.295 l -1.832,0.1 c -0.569,5.13 -3.743,9.413 -5.271,14.227 a 0.3,0.3 0 0 0 0.193,0.34 c 4.223,1.66 7.073,-11.4 8.513,-13.112 l -1.831,0.1 c -0.014,4.589 -4.034,8.407 -4.531,12.96 -0.089,0.816 1.59,0.272 1.832,-0.1 2.411,-3.691 3.031,-8.162 5.186,-11.975 l -1.832,0.1 c -0.673,2.682 -1.623,5.26 -2.311,7.91 l 1.9,-0.239 c 0.43,-1.822 3.594,-8.751 -0.6,-8.2 -1.588,0.208 -2.834,1.928 -3.807,2.988 -2.092,2.278 -3.416,4.981 -5.3,7.4 l 1.767,0.04 c 1.13,-1.666 2.39,-3.887 0.995,-5.779 a 2.209,2.209 0 0 0 -2.968,-0.83 c -4.542,2.827 5.387,9.5 6.969,10.76 l 1.636,-0.83 c -2.979,-2 -5.939,-5.767 -9.573,-6.6 -0.4,-0.093 -1.46,0.094 -1.53,0.634 -0.319,2.479 4.431,5.111 6.3,3.006 2.067,-2.328 -3.632,-4.543 -5.295,-4.642 a 1.527,1.527 0 0 0 -1.252,0.518 c -2.2,3.336 3.495,5.112 5.92,5.389 0.425,0.049 1.436,-0.061 1.529,-0.634 0.648,-4 -12.132,-4.277 -4.4,2.522 1.4,1.231 4.175,3.009 5.7,0.985 1.655,-2.2 -2.563,-8.254 -4.675,-8.882 -2.563,-0.761 -2.978,1.425 -2.211,3.378 1.106,2.817 5.2,7.279 8.674,6.555 5.44,-1.131 1.049,-10.833 -1.531,-6.229 -1.1,1.966 0.135,5.8 2.793,5.1 3.587,-0.952 3.253,-7.5 1.987,-9.939 -0.23,-0.442 -0.965,-0.29 -1.324,-0.136 -2.515,1.083 -2.654,7.989 0.023,8.9 a 1.538,1.538 0 0 0 1.638,-0.439 c 1.834,-2.564 2.369,-6.866 1.812,-9.906 -0.115,-0.634 -1.859,-0.183 -1.9,0.373 a 38.315,38.315 0 0 0 0.172,5.88 c 0.147,1.789 -0.257,3.954 0.523,5.572 0.278,0.576 1.355,0.212 1.709,-0.1 1.048,-0.918 1.119,-1.883 0.017,-2.828 -0.449,-0.385 -1.238,-0.094 -1.642,0.216 -0.906,0.695 -1.97,1.909 -3.166,1.726 l -1.162,1.03 c 1.884,0.264 3.615,-0.064 5.53,0.1 0.5,0.041 2.011,-0.817 0.95,-1.053 -2.125,-0.475 -3.89,-1.865 -5.988,-2.138 -0.344,-0.045 -1.948,0.239 -1.462,0.886 1.268,1.686 6.809,4.11 8.673,2.2 0.145,-0.149 0.279,-0.333 0.12,-0.527 -1.393,-1.705 -4.5,-3.259 -6.41,-1.269 -2.2,2.289 1.21,3.336 3.027,3.611 a 1.6,1.6 0 0 0 1.465,-0.495 c 0.642,-0.945 0.38,-2.248 0.574,-3.423 0.1,-0.615 -1.049,-0.4 -1.324,-0.271 -1.538,0.748 -3.908,2.011 -5.482,0.572 -1.368,-1.251 1.042,-5.8 1.417,-6.568 1.218,-2.5 2.806,-4.819 2.339,-7.7 -0.116,-0.717 -1.6,-0.046 -1.832,0.235 -1.66,2.005 -1.837,4.5 -2.411,6.956 -0.174,0.745 1.613,0.316 1.831,-0.1 1.8,-3.423 3.715,-7.072 4.2,-10.948 0.079,-0.632 -1.03,-0.385 -1.323,-0.271 -3.48,1.353 -4.895,6.114 -7.768,8.3 l 1.644,0.176 a 22.969,22.969 0 0 1 3.763,-4.879 9.445,9.445 0 0 0 2.319,-2.524 c 0.393,-0.8 -1.155,-0.511 -1.472,-0.3 -2.428,1.612 -4.54,3.779 -7.131,5.135 l 1.472,0.3 a 12.473,12.473 0 0 1 3.482,-3.573 l -1.709,-0.037 a 9.914,9.914 0 0 1 -2.863,3.182 c -0.85,0.74 1.073,0.649 1.521,0.311 1.171,-0.883 1.956,-2 3.047,-2.924 1.527,-1.287 2.5,-2.553 2.308,0.4 -0.134,2.074 -0.894,3.984 -0.873,6.081 0.01,0.63 1.786,0.154 1.9,-0.373 0.441,-2.088 0.986,-4.148 1.466,-6.227 l -1.9,0.238 a 42.859,42.859 0 0 0 0.44,9.955 c 0.1,0.663 1.8,0.148 1.9,-0.373 0.383,-2.034 1.7,-6.823 0.017,-8.643 -0.439,-0.474 -1.618,-0.028 -1.83,0.49 -1.329,3.247 -0.927,7.028 -1.4,10.472 -0.1,0.767 1.737,0.361 1.9,-0.238 0.855,-3.213 2.349,-7.281 0.163,-10.3 -0.276,-0.381 -1.189,-0.1 -1.47,0.09 -1.251,0.83 -1.159,1.6 -1.638,3.054 -1.064,3.245 -1.9,6.428 -2.682,9.76 -0.164,0.7 1.745,0.411 1.9,-0.238 0.55,-2.35 1,-4.757 1.73,-7.057 0.344,-1.081 0.876,-4.3 1.87,-4.957 l -1.469,0.09 c 2.054,2.842 0.5,6.811 -0.3,9.8 l 1.9,-0.238 c 0.467,-3.434 0.07,-7.234 1.4,-10.472 l -1.83,0.49 c 1.4,1.513 0.167,6.451 -0.151,8.139 l 1.9,-0.373 a 46.164,46.164 0 0 1 -0.441,-9.685 c 0.068,-0.779 -1.757,-0.369 -1.9,0.238 -0.48,2.079 -1.025,4.139 -1.466,6.227 l 1.9,-0.373 c -0.016,-1.572 2.444,-8.19 -0.126,-9.115 -2.722,-0.978 -6.349,4.677 -7.774,5.752 l 1.521,0.311 a 10.853,10.853 0 0 0 3.239,-3.731 c 0.3,-0.737 -1.517,-0.185 -1.709,-0.036 a 13.013,13.013 0 0 0 -3.727,3.844 c -0.422,0.827 1.174,0.457 1.472,0.3 2.6,-1.36 4.692,-3.517 7.131,-5.136 l -1.472,-0.3 c -0.688,1.407 -2.1,2.113 -3.112,3.234 a 23.472,23.472 0 0 0 -2.97,4.169 c -0.48,0.877 1.364,0.389 1.644,0.176 2.476,-1.888 4.071,-6.7 6.995,-7.835 l -1.323,-0.271 c -0.472,3.779 -2.319,7.342 -4.069,10.67 l 1.832,-0.1 c 0.542,-2.326 0.7,-4.77 2.281,-6.678 l -1.832,0.234 c 0.672,4.147 -6.665,10.958 -3.371,14.941 2.093,2.529 5.65,0.047 7.744,-0.971 l -1.324,-0.271 -0.664,1.7 c -0.063,0.1 -0.123,0.3 0,0.392 l 0.219,1.048 1.464,-0.495 c -1.389,-0.21 0.286,-0.839 0.081,-1.3 -0.029,-0.067 -1.313,-0.47 -1.854,-0.677 a 6.824,6.824 0 0 1 -3.037,-1.752 l -1.462,0.886 c 1.95,0.254 3.986,1.691 5.988,2.138 l 0.95,-1.053 c -1.711,-0.142 -3.4,0.19 -5.106,-0.049 -0.592,-0.083 -2.237,0.866 -1.162,1.03 2.769,0.424 3.792,-0.868 5.85,-2.445 l -1.642,0.216 q 0.112,0.887 0.224,1.774 l 1.709,-0.1 c -0.569,-1.18 -0.324,-2.7 -0.4,-3.945 a 56.652,56.652 0 0 1 -0.3,-7.236 l -1.9,0.373 c 0.5,2.735 -0.015,7.029 -1.682,9.358 l 1.639,-0.439 c -1.449,-0.491 -2.29,-6.551 -0.783,-7.2 l -1.324,-0.136 a 8.053,8.053 0 0 1 0.665,5.6 c -0.435,1.73 -1.428,3.626 -1.851,0.746 -0.359,-2.436 0.124,-2.01 0.281,-0.177 0.045,0.531 0.451,1.87 0.1,2.35 -1.27,1.748 -3.669,-0.493 -4.6,-1.307 -0.47,-0.411 -3.614,-4.835 -3.133,-4.959 0.695,-0.179 3.279,4.072 3.425,4.606 0.938,3.434 -2.207,1 -3.242,-0.4 -2.528,-3.408 2.335,-2.145 2.023,-0.22 l 1.53,-0.634 c -0.124,-0.014 -7.311,-2.063 -5.374,-3.411 a 10.044,10.044 0 0 1 1.721,0.792 c 1.974,2.037 -1.575,1.394 -1.285,-0.86 l -1.529,0.634 c 3.493,0.8 6.337,4.553 9.225,6.491 0.452,0.3 2.158,-0.416 1.636,-0.831 -2.029,-1.614 -4.318,-2.883 -5.961,-4.939 -0.847,-1.058 -1.584,-2.481 -1.49,-3.031 q 1.094,0.342 0.275,1.941 a 8.657,8.657 0 0 1 -1.349,2.581 c -0.5,0.741 1.413,0.5 1.767,0.04 1.3,-1.672 3.907,-7.735 6.082,-8.156 q 0.573,-1.255 0.968,-0.091 a 0.834,0.834 0 0 1 0.188,1.25 c 0.083,1.465 -0.858,3.569 -1.2,5.008 -0.167,0.7 1.731,0.4 1.9,-0.239 0.69,-2.655 1.636,-5.22 2.311,-7.91 0.189,-0.748 -1.607,-0.3 -1.831,0.1 -2.152,3.806 -2.782,8.3 -5.187,11.975 l 1.832,-0.1 c 0.5,-4.562 4.517,-8.333 4.531,-12.96 0,-0.856 -1.545,-0.242 -1.832,0.1 -1.448,1.721 -1.838,4.1 -2.691,6.144 -0.52,1.243 -2.41,3.763 -2.535,5.061 -0.166,1.707 0.831,-0.4 1.3,-1.113 a 23.939,23.939 0 0 0 1.422,-3.512 c 1.164,-2.681 2.409,-5.289 2.736,-8.233 0.1,-0.864 -1.578,-0.2 -1.832,0.1 -1.5,1.745 -2.128,4.288 -3.216,6.3 -1.308,2.414 -2.656,4.807 -3.949,7.214 -0.456,0.849 1.437,0.451 1.767,0.04 1.164,-1.45 1.489,-3.053 2.207,-4.731 0.945,-2.211 2.407,-3.847 2.428,-6.347 0.01,-0.864 -1.544,-0.23 -1.831,0.1 -1.928,2.207 -3.222,4.968 -5.177,7.236 l 1.766,0.04 a 28.131,28.131 0 0 0 2.828,-5.484 c 0.25,-0.778 -1.506,-0.187 -1.709,-0.036 -1.368,1.016 -2.146,2.57 -3.539,3.626 l 1.644,0.176 a 6.377,6.377 0 0 0 1.018,-2.874 c 0.065,-0.727 -1.232,-0.32 -1.537,-0.163 a 10.593,10.593 0 0 0 -3.557,3.234 c -0.536,0.675 1.387,0.477 1.767,0.039 a 60.929,60.929 0 0 1 4.646,-4.46 l -1.644,-0.176 a 33.913,33.913 0 0 0 -2.845,4.249 c -0.46,0.811 1.434,0.494 1.766,0.04 a 6.717,6.717 0 0 1 2.5,-2.351 c 1.242,-0.46 0.112,-1.1 -0.75,-0.78 z" />
      </g>
      <g
         id="Group_127"
         data-name="Group 127">
        <path
           inkscape:connector-curvature="0"
           id="Path_177"
           data-name="Path 177"
           d="m 1028.471,427.975 c -9.5,5.89 -14.4,17.866 -19.312,27.416 -5.773,11.22 -11.341,22.68 -16.362,34.26 -1.545,3.563 -11.426,26.488 -4.409,26.959 0.571,0.038 1.828,-0.285 1.976,-0.985 q 0.082,-0.4 0.167,-0.791 c 0.224,-1.065 -2.641,-0.617 -2.846,0.357 -0.056,0.263 -0.111,0.527 -0.167,0.791 l 1.977,-0.986 c -3.3,-0.222 5.189,-23.495 6.275,-25.992 4.811,-11.06 10.123,-21.983 15.613,-32.721 4.727,-9.244 9.681,-21.779 18.853,-27.465 1.631,-1.011 -0.845,-1.414 -1.765,-0.843 z" />
      </g>
      <g
         id="Group_128"
         data-name="Group 128">
        <path
           inkscape:connector-curvature="0"
           id="Path_178"
           data-name="Path 178"
           d="m 1025.4,464.238 c -7.644,13.956 -17.086,27.656 -21.6,43.026 -0.27,0.921 1.651,0.557 1.985,0.406 0.879,-0.4 1.251,-0.578 1.361,-1.585 0.123,-1.13 -2.74,-0.608 -2.846,0.357 l 0.361,0.059 1.985,0.406 c 4.456,-15.186 13.84,-28.807 21.4,-42.61 0.643,-1.174 -2.2,-0.882 -2.65,-0.059 z" />
      </g>
    </g>
    <g
       id="Group_10"
       data-name="Group 10"
       transform="matrix(0.21243997,-0.20515089,0.20515089,0.21243997,113.10474,135.90732)">
      <path
         style="fill:#b053af"
         inkscape:connector-curvature="0"
         id="Path_35"
         data-name="Path 35"
         d="m 316.966,457.278 c -37.859,-0.111 -75.748,-1.255 -113.6,-1 a 0.825,0.825 0 0 0 0,1.648 c 37.8,1.579 75.775,1.214 113.6,1.328 a 0.988,0.988 0 0 0 0,-1.976 z" />
      <path
         style="fill:#b053af"
         inkscape:connector-curvature="0"
         id="Path_36"
         data-name="Path 36"
         d="m 311.984,446.684 c -34.358,-0.177 -68.791,-0.663 -103.144,0.026 a 0.8,0.8 0 0 0 0,1.593 c 34.351,0.785 68.785,0.4 103.144,0.315 a 0.968,0.968 0 0 0 0,-1.934 z" />
      <path
         style="fill:#b053af"
         inkscape:connector-curvature="0"
         id="Path_37"
         data-name="Path 37"
         d="m 305.505,436.842 c -15.155,-0.636 -30.422,-0.22 -45.592,-0.287 -15.15,-0.068 -30.463,-0.711 -45.591,0.17 a 0.577,0.577 0 0 0 0,1.153 c 15.121,1.025 30.44,0.527 45.591,0.6 15.17,0.076 30.431,0.639 45.592,0.147 a 0.894,0.894 0 0 0 0,-1.783 z" />
      <path
         style="fill:#b053af"
         inkscape:connector-curvature="0"
         id="Path_38"
         data-name="Path 38"
         d="m 301.52,426.229 c -13.62,-0.028 -27.24,0.041 -40.859,0.069 -13.509,0.027 -27.4,-0.766 -40.859,0.443 a 0.588,0.588 0 0 0 0,1.176 c 13.459,1.159 27.352,0.314 40.859,0.291 13.619,-0.023 27.24,-0.006 40.859,-0.084 a 0.948,0.948 0 0 0 0,-1.895 z" />
      <path
         style="fill:#b053af"
         inkscape:connector-curvature="0"
         id="Path_39"
         data-name="Path 39"
         d="m 294.545,415.653 c -22.914,0.169 -45.856,0.176 -68.762,0.84 a 0.689,0.689 0 0 0 0,1.377 c 22.913,0.261 45.85,-0.135 68.762,-0.369 a 0.925,0.925 0 0 0 0,-1.848 z" />
      <path
         style="fill:#b053af"
         inkscape:connector-curvature="0"
         id="Path_40"
         data-name="Path 40"
         d="m 291.034,406.786 -0.2,-0.279 a 0.871,0.871 0 0 0 -1.164,-0.3 l -0.226,0.133 a 0.827,0.827 0 0 0 -0.317,0.33 c -3.908,0.982 -9.56,-0.054 -13.4,-0.052 q -7.408,0.006 -14.816,0.012 c -9.549,0.02 -19.1,0.021 -28.646,0.256 a 0.65,0.65 0 0 0 0,1.3 c 10.533,0.261 21.073,0.251 31.609,0.263 q 7.9,0.009 15.8,0.012 c 3.3,0 8.016,0.955 11.049,-0.477 a 0.874,0.874 0 0 0 0.311,-1.198 z" />
      <path
         style="fill:#b053af"
         inkscape:connector-curvature="0"
         id="Path_41"
         data-name="Path 41"
         d="m 284.2,397.619 c -15.789,-0.449 -31.652,-1.23 -47.447,-0.948 a 0.627,0.627 0 0 0 0,1.253 c 15.764,1.094 31.651,1.132 47.447,1.5 1.158,0.037 1.158,-1.773 0,-1.805 z" />
      <path
         style="fill:#b053af"
         inkscape:connector-curvature="0"
         id="Path_42"
         data-name="Path 42"
         d="m 279.592,387.366 c -11.936,-0.885 -24.439,-1.363 -36.37,-0.236 a 0.519,0.519 0 0 0 0,1.037 c 12.079,0.605 24.272,0.476 36.37,0.816 1.049,0.029 1.027,-1.541 0,-1.617 z" />
      <path
         style="fill:#b053af"
         inkscape:connector-curvature="0"
         id="Path_43"
         data-name="Path 43"
         d="m 273.109,378.007 c -7.95,-0.475 -15.938,-0.991 -23.9,-1.04 -0.756,-0.005 -0.725,1.08 0,1.152 7.934,0.785 15.94,1.112 23.9,1.474 1.023,0.046 1.014,-1.525 0,-1.586 z" />
      <path
         style="fill:#b053af"
         inkscape:connector-curvature="0"
         id="Path_44"
         data-name="Path 44"
         d="m 266.641,367.97 a 73.8,73.8 0 0 0 -12.956,0.185 0.511,0.511 0 0 0 0,1.021 73.888,73.888 0 0 0 12.956,0.186 0.7,0.7 0 0 0 0,-1.392 z" />
      <path
         style="fill:#b053af"
         inkscape:connector-curvature="0"
         id="Path_45"
         data-name="Path 45"
         d="m 262.654,357.961 a 16.25,16.25 0 0 0 -1.744,0.147 c -0.582,0.04 -1.163,0.075 -1.744,0.14 a 0.453,0.453 0 0 0 0,0.905 c 0.581,0.064 1.162,0.1 1.744,0.139 a 16.249,16.249 0 0 0 1.744,0.147 0.739,0.739 0 0 0 0,-1.478 z" />
    </g>
  </g>
</svg>
