<?xml version="1.0" encoding="UTF-8" standalone="no"?>
<!-- Generator: Adobe Illustrator 16.0.3, SVG Export Plug-In . SVG Version: 6.00 Build 0)  -->

<svg
   xmlns:dc="http://purl.org/dc/elements/1.1/"
   xmlns:cc="http://creativecommons.org/ns#"
   xmlns:rdf="http://www.w3.org/1999/02/22-rdf-syntax-ns#"
   xmlns:svg="http://www.w3.org/2000/svg"
   xmlns="http://www.w3.org/2000/svg"
   xmlns:sodipodi="http://sodipodi.sourceforge.net/DTD/sodipodi-0.dtd"
   xmlns:inkscape="http://www.inkscape.org/namespaces/inkscape"
   version="1.1"
   id="Layer_1"
   x="0px"
   y="0px"
   width="569.675px"
   height="200px"
   viewBox="0 0 569.675 200"
   enable-background="new 0 0 569.675 200"
   xml:space="preserve"
   inkscape:version="0.91 r13725"
   sodipodi:docname="elorus-logo-api.svg"><metadata
     id="metadata25"><rdf:RDF><cc:Work
         rdf:about=""><dc:format>image/svg+xml</dc:format><dc:type
           rdf:resource="http://purl.org/dc/dcmitype/StillImage" /><dc:title></dc:title></cc:Work></rdf:RDF></metadata><defs
     id="defs23" /><sodipodi:namedview
     pagecolor="#ffffff"
     bordercolor="#666666"
     borderopacity="1"
     objecttolerance="10"
     gridtolerance="10"
     guidetolerance="10"
     inkscape:pageopacity="0"
     inkscape:pageshadow="2"
     inkscape:window-width="1839"
     inkscape:window-height="1050"
     id="namedview21"
     showgrid="false"
     inkscape:zoom="0.5757669"
     inkscape:cx="94.656362"
     inkscape:cy="100"
     inkscape:window-x="81"
     inkscape:window-y="30"
     inkscape:window-maximized="1"
     inkscape:current-layer="Layer_1" /><g
     id="g3"
     transform="matrix(0.48044646,0,0,0.48044646,44.35029,82.35931)"><path
       d="m 99.917,48.626 23.901,0 0,77.188 51.365,0 0,23.901 -75.266,0 0,-101.089 z"
       id="path5"
       inkscape:connector-curvature="0"
       style="fill:#17847e" /><path
       d="m 232.582,72.566 c 14.831,0 26.893,12.063 26.893,26.89 0,14.832 -12.062,26.895 -26.893,26.895 -14.817,0 -26.893,-12.063 -26.893,-26.895 0,-14.821 12.071,-26.89 26.893,-26.89 m 0,-24.774 c -28.533,0 -51.665,23.134 -51.665,51.665 0,28.541 23.137,51.667 51.665,51.667 28.533,0 51.67,-23.132 51.67,-51.667 0,-28.531 -23.137,-51.665 -51.67,-51.665 l 0,0 z"
       id="path7"
       inkscape:connector-curvature="0"
       style="fill:#17847e" /><path
       d="m 391.941,106.992 0,-58.368 23.966,0 0,55.788 c 0,12.435 8.338,22.229 20.076,22.229 10.426,0 20.427,-7.849 20.427,-22.229 l 0,-55.786 23.901,0 0,58.366 c 0,26.399 -17.436,44.111 -44.328,44.111 -24.942,0.001 -44.042,-16.043 -44.042,-44.111 z"
       id="path9"
       inkscape:connector-curvature="0"
       style="fill:#17847e" /><rect
       x="1.324"
       y="125.814"
       width="84.360001"
       height="23.900999"
       id="rect11"
       style="fill:#17847e" /><rect
       x="1.324"
       y="87.218002"
       width="42.18"
       height="23.903999"
       id="rect13"
       style="fill:#1e4682" /><rect
       x="1.324"
       y="48.625999"
       width="84.360001"
       height="23.900999"
       id="rect15"
       style="fill:#aa3c64" /><path
       d="m 358.159,114.693 0,-0.788 c 9.992,-4.779 19.256,-14.817 19.256,-30.169 0,-20.081 -12.389,-35.022 -35.576,-35.022 l -44.111,0 0,101.09 23.967,0 0,-80.042 16.785,0 c 8.825,0 14.872,5.697 14.872,13.273 0,8.798 -4.931,12.375 -10.733,14.029 -5.789,1.65 -16.27,1.754 -16.27,1.754 l 0,1.279 28.109,49.707 27.072,0 -23.371,-35.111 z"
       id="path17"
       inkscape:connector-curvature="0"
       style="fill:#17847e" /><path
       d="m 555.468,142.201 c -8.111,5.899 -18.527,8.999 -30.594,8.614 -13.559,-0.434 -26.362,-5.432 -36.285,-13.693 0,0 8.794,-15.702 11.131,-19.719 3.812,5.393 16.568,11.852 28.215,12.186 7.333,0.212 14.302,-2.917 14.522,-9.976 0.226,-6.962 -12.531,-9.989 -22.191,-13.372 -12.721,-4.448 -26.045,-12.684 -25.542,-28.363 0.599,-18.804 15.085,-31.047 36.756,-30.356 11.789,0.378 23.652,4.238 32.266,9.911 L 553.27,75.979 c -5.706,-3.606 -16.449,-8.413 -25.312,-7.812 -6.374,0.434 -9.172,4.144 -9.038,8.64 0.156,5.427 7.937,7.164 24.45,13.446 15.997,6.088 23.855,15.511 23.795,27.052 -0.046,8.224 -2.885,18.476 -11.697,24.896 z"
       id="path19"
       inkscape:connector-curvature="0"
       style="fill:#17847e" /></g></svg>