<?xml version="1.0" encoding="iso-8859-1"?>
<!-- Generator: Adobe Illustrator 19.0.0, SVG Export Plug-In . SVG Version: 6.00 Build 0)  -->
<svg version="1.1" id="Layer_1" xmlns="http://www.w3.org/2000/svg" xmlns:xlink="http://www.w3.org/1999/xlink" x="0px" y="0px"
	 viewBox="0 0 330 330" style="enable-background:new 0 0 330 330;" xml:space="preserve">
<g id="XMLID_87_">
	<path id="XMLID_88_" d="M325.606,304.394L223.329,202.116c16.707-21.256,26.682-48.04,26.682-77.111
		C250.011,56.077,193.934,0,125.005,0C56.077,0,0,56.077,0,125.006C0,193.933,56.077,250.01,125.005,250.01
		c29.07,0,55.855-9.975,77.111-26.681l102.277,102.277C307.322,328.536,311.161,330,315,330s7.678-1.464,10.606-4.394
		C331.465,319.749,331.465,310.251,325.606,304.394z M30,125.006C30,72.619,72.619,30,125.005,30
		c52.387,0,95.006,42.619,95.006,95.005c0,52.386-42.619,95.005-95.006,95.005C72.619,220.01,30,177.391,30,125.006z"/>
	<path id="XMLID_91_" d="M155.005,110.006h-15v-15c0-8.284-6.716-15-15-15s-15,6.716-15,15v15h-15c-8.284,0-15,6.716-15,15
		s6.716,15,15,15h15v15c0,8.284,6.716,15,15,15s15-6.716,15-15v-15h15c8.284,0,15-6.716,15-15S163.289,110.006,155.005,110.006z"/>
</g>
</svg>
